<svg width="70" height="68" viewBox="0 0 70 68" fill="none" xmlns="http://www.w3.org/2000/svg">
<rect width="69.9433" height="67.7732" fill="#141414"/>
<path d="M12.4778 10.9576C13.97 10.9576 15.4628 10.9576 16.9553 10.9576C16.9562 16.1529 16.9569 21.3482 16.9581 26.5435C16.9609 43.9804 16.9219 43.3054 18.0706 45.6451C20.0969 49.7719 24.9694 51.9688 29.5163 50.8057C32.2791 50.0991 34.8556 48.0585 36.1313 45.5669C37.4156 43.0585 37.3284 44.3726 37.3803 26.7507C37.4059 18.1204 37.4669 11.0185 37.5163 10.9694C37.6413 10.8441 45.0425 10.7616 45.6716 10.8785C45.8428 10.9104 46.0137 10.9419 46.1847 10.9738C46.1666 16.4788 46.1484 21.9838 46.1306 27.4891C46.0769 43.7735 46.0713 44.0219 45.7422 45.2544C45.2841 46.9701 44.4178 49.1163 43.7266 50.2479C40.7641 55.0985 36.8691 58.0113 31.5603 59.3469C29.9984 59.7394 29.5956 59.7776 27.0334 59.7729C24.5534 59.7682 24.0128 59.7188 22.4609 59.3551C18.9169 58.5241 16.0141 56.8801 13.4859 54.2719C10.7481 51.4479 9.23188 48.5794 8.51188 44.8638C8.24875 43.5069 8.21469 41.9869 8.11219 27.1685C8.07469 21.7651 8.0375 16.361 8 10.9576C9.4925 10.9576 10.985 10.9576 12.4778 10.9576Z" fill="#DEDEDE"/>
<path d="M52.3797 23.2637C52.4015 23.1202 52.4231 22.9774 52.445 22.834C53.8737 22.834 55.3028 22.834 56.7322 22.834C58.1609 22.834 59.59 22.834 61.019 22.834C61.0059 28.9149 60.9928 34.9952 60.9794 41.0762C60.9659 47.1568 60.9531 53.2377 60.9397 59.3184C59.5278 59.3321 58.1159 59.3459 56.7037 59.3599C55.2922 59.374 53.88 59.3874 52.4681 59.4015C52.4353 59.1274 52.4022 58.8527 52.3694 58.5787C52.2625 57.6884 52.2722 23.9727 52.3797 23.2637Z" fill="#DEDEDE"/>
<path d="M51.721 11.3741C52.1801 10.1641 53.1594 9.11754 54.4554 8.45254C55.5091 7.91191 57.3541 7.8466 58.596 8.30566C59.9435 8.80441 61.3657 10.2604 61.7307 11.5147C62.4504 13.9907 61.2923 16.6694 59.0201 17.7853C58.2426 18.1672 57.9457 18.2238 56.721 18.2238C55.526 18.2238 55.1819 18.1616 54.4313 17.8097C53.3879 17.3203 52.4279 16.3825 51.9269 15.3632C51.476 14.4466 51.366 12.3107 51.721 11.3741Z" fill="#14B8A6"/>
<path d="M40.3113 58.399C42.4613 56.7152 44.5835 54.2793 45.8307 52.0634C46.0232 51.7212 46.216 51.3793 46.4085 51.0371C46.4226 52.4018 46.4363 53.7665 46.4501 55.1312C46.4642 56.4959 46.4779 57.8606 46.492 59.2252C46.3217 59.2559 46.1517 59.2868 45.9813 59.3174C45.7007 59.368 44.046 59.3893 42.3042 59.364C41.2485 59.3487 40.1929 59.3337 39.137 59.3184C39.5285 59.0118 39.9198 58.7052 40.3113 58.399Z" fill="#14B8A6"/>
</svg>
